<svg xmlns="http://www.w3.org/2000/svg" width="32" height="32" viewBox="0 0 32 32" fill="none">
  <path d="M4 9C4 7.89543 4.89543 7 6 7H12L14.2 10H26C27.1046 10 28 10.8954 28 12V24C28 25.1046 27.1046 26 26 26H6C4.89543 26 4 25.1046 4 24V9Z" fill="#F5C542"/>
  <path d="M4 13C4 11.8954 4.89543 11 6 11H26C27.1046 11 28 11.8954 28 13V24C28 25.1046 27.1046 26 26 26H6C4.89543 26 4 25.1046 4 24V13Z" fill="#FFD86B"/>
  <path d="M4 9C4 7.89543 4.89543 7 6 7H12L14.2 10H26C27.1046 10 28 10.8954 28 12V24C28 25.1046 27.1046 26 26 26H6C4.89543 26 4 25.1046 4 24V9Z" stroke="#D4A72C" stroke-width="1.2" stroke-linejoin="round"/>
</svg>
