<svg xmlns="http://www.w3.org/2000/svg" width="32" height="32" viewBox="0 0 32 32" fill="none">
  <path d="M4 10C4 8.89543 4.89543 8 6 8H12L14 10H25C26.1046 10 27 10.8954 27 12V14H9C8.08134 14 7.27434 14.6241 7.04105 15.5127L4.2 26.3429C4.0692 26.8414 4.44505 27.3333 4.96039 27.3333H24.8525C25.7702 27.3333 26.5764 26.7106 26.8106 25.8233L29.654 15.0566C29.7857 14.5578 29.4098 14.0649 28.8938 14.0649H27V12C27 10.8954 26.1046 10 25 10H14L12 8H6C4.89543 8 4 8.89543 4 10Z" fill="#FFD86B"/>
  <path d="M9 14H28.894C29.4099 14 29.7857 14.4929 29.654 14.9917L26.8106 25.7584C26.5764 26.6457 25.7702 27.2684 24.8525 27.2684H4.96039C4.44505 27.2684 4.0692 26.7765 4.2 26.278L7.04105 15.4478C7.27434 14.5591 8.08134 13.9351 9 13.9351V14Z" fill="#F5C542"/>
  <path d="M4 10C4 8.89543 4.89543 8 6 8H12L14 10H25C26.1046 10 27 10.8954 27 12V14H9C8.08134 14 7.27434 14.6241 7.04105 15.5127L4.2 26.3429C4.0692 26.8414 4.44505 27.3333 4.96039 27.3333H24.8525C25.7702 27.3333 26.5764 26.7106 26.8106 25.8233L29.654 15.0566C29.7857 14.5578 29.4098 14.0649 28.8938 14.0649H27V12C27 10.8954 26.1046 10 25 10H14L12 8H6C4.89543 8 4 8.89543 4 10Z" stroke="#D4A72C" stroke-width="1.2" stroke-linejoin="round"/>
</svg>
