<svg xmlns="http://www.w3.org/2000/svg" width="32" height="32" viewBox="0 0 32 32" fill="none">
  <path d="M8 3H18L25 10V28C25 29.1046 24.1046 30 23 30H8C6.89543 30 6 29.1046 6 28V5C6 3.89543 6.89543 3 8 3Z" fill="#EEF2FF"/>
  <path d="M18 3V10H25" fill="#FFFFFF"/>
  <path d="M18 3V10H25" stroke="#C7D2FE" stroke-width="1.2" stroke-linejoin="round"/>
  <path d="M8 3H18L25 10V28C25 29.1046 24.1046 30 23 30H8C6.89543 30 6 29.1046 6 28V5C6 3.89543 6.89543 3 8 3Z" stroke="#C7D2FE" stroke-width="1.2" stroke-linejoin="round"/>
  <rect x="13.5" y="8" width="5" height="5" rx="1" fill="#7877E6"/>
  <rect x="13.5" y="14.5" width="5" height="5" rx="1" fill="#7877E6"/>
  <rect x="13.5" y="21" width="5" height="4" rx="1" fill="#7877E6"/>
  <path d="M7.5 19.75C7.5 16.1601 10.4101 13.25 14 13.25H13.5V25H12.25C9.62665 25 7.5 22.8734 7.5 20.25V19.75Z" fill="#7877E6"/>
</svg>
